<svg id="Layer_1" data-name="Layer 1" xmlns="http://www.w3.org/2000/svg" width="225" height="220" viewBox="0 0 225 220">
  <defs>
    <style>
      .cls-1 {
        fill: #374b94;
      }

      .cls-2 {
        fill: #fff;
      }

      .cls-3 {
        fill: #eec0c7;
      }
    </style>
  </defs>
  <rect class="cls-1" x="15.5" y="13.99" width="191.14" height="191.14"/>
  <g>
    <path class="cls-2" d="M67.94,40.83V78.28H60.43V53.92l-10,24.36H44.71L34.63,53.92V78.28H27.12V40.83h8.53L47.56,68.67,59.47,40.83Z"/>
    <path class="cls-2" d="M82.86,40.83V78.28H75.35V40.83Z"/>
    <path class="cls-2" d="M115.74,40.83v6.06h-10V78.28H98.25V46.89h-10V40.83Z"/>
  </g>
  <g>
    <path class="cls-3" d="M62.66,140.82l-19.41-25.5v25.5H29.18V83.08H43.25v25.33L62.5,83.08H79L56.66,111.37l23.2,29.45Z"/>
    <path class="cls-3" d="M129.54,116.19a15.14,15.14,0,0,1-2,20.4q-5.05,4.23-14.1,4.23H86.52V83.08h26q8.8,0,13.78,4a13.31,13.31,0,0,1,5,10.94,13.23,13.23,0,0,1-2.68,8.47,13.82,13.82,0,0,1-7.11,4.69A13.41,13.41,0,0,1,129.54,116.19Zm-29-9.75h9.22a8.16,8.16,0,0,0,5.3-1.52,5.46,5.46,0,0,0,1.85-4.49,5.57,5.57,0,0,0-1.85-4.52,8,8,0,0,0-5.3-1.56h-9.22Zm15.84,21.43a5.69,5.69,0,0,0,1.93-4.65,6,6,0,0,0-2-4.77,8.3,8.3,0,0,0-5.56-1.73h-10.2v12.75H111A8.34,8.34,0,0,0,116.42,127.87Z"/>
    <path class="cls-3" d="M190.74,83.08v57.74H176.67V117.05H154.79v23.77H140.73V83.08h14.06V105.7h21.88V83.08Z"/>
  </g>
  <path class="cls-2" d="M206.71,183v-4c-1.3,1.3-2,1.95-2,2a11.58,11.58,0,0,0-2.52,5.34,18.82,18.82,0,0,0-.48,5.66,20.17,20.17,0,0,0,2,9c1.11,2.18,2.69,4.17,3,4,.55-.3-2.58-5.54-3-13-.14-2.59,0-5.64,2-8A7.71,7.71,0,0,1,206.71,183Z"/>
  <path class="cls-2" d="M204.93,203.82s-2.42-.71-5.67-5l-.24-.33-.47-.67c-4.87-7.24-7.31-10.86-10.64-12.93a12.3,12.3,0,0,0-7-2.44c-4,.06-7.14,2.47-7,2.74a29,29,0,0,0,2.9-.49,15.05,15.05,0,0,1,3.64-.24,11.74,11.74,0,0,1,3,.73,14.38,14.38,0,0,1,3.27,1.66c3.42,2.26,2.57,4.19,6.77,9.51h0a27.18,27.18,0,0,0,7.75,7.08,14.06,14.06,0,0,0,3.49.75,9,9,0,0,0,2,0C206.72,204.11,205.86,204.1,204.93,203.82Z"/>
  <polygon class="cls-2" points="20.59 186.95 17.44 189.15 17.44 192.73 20.1 194.76 21.02 196.32 24.95 197.44 30.08 196.56 31.48 195.98 31.48 191.62 28.82 188.41 26.54 187.81 24.46 187.81 23.66 186.95 20.59 186.95"/>
  <path class="cls-2" d="M29.54,189.15l-1-2L27.12,185v-3.76l-1.21-.63a2.47,2.47,0,0,0,.24-.49,3.46,3.46,0,0,0,.25-1.46,1.76,1.76,0,0,0-.73-1,1.58,1.58,0,0,0-.73-.24,1.22,1.22,0,0,0-1,.24,1.34,1.34,0,0,0-.49,1,1.86,1.86,0,0,0,.49,1.22,1.82,1.82,0,0,0,.48.34,2.25,2.25,0,0,0-1.21.63,2.21,2.21,0,0,0-.48.73c-.41.9-.81,1.79-1.21,2.69a3.75,3.75,0,0,0,0,2.68l2.9,2.41Z"/>
  <polygon class="cls-2" points="35.94 178.35 35.94 205.13 59.48 205.13 59.48 172.69 57.3 172.69 57.24 178.35 49.49 178.35 47.8 176.89 46.35 178.35 35.94 178.35"/>
  <polygon class="cls-2" points="72.61 205.13 72.61 174.14 65.77 174.14 65.77 171.57 63.16 171.57 63.16 174.14 55.79 174.2 55.79 205.13 72.61 205.13"/>
  <path class="cls-2" d="M72.37,205.13v-13a2.91,2.91,0,0,1-1.26-1.22,2.65,2.65,0,0,1-.26-1.71l5.07.07v-13a10.55,10.55,0,0,1,4.58-7.52,11.09,11.09,0,0,1,5-1.7v-1.63l1.31-.08v-4.06a2.57,2.57,0,0,1,1.29-1.31,2.62,2.62,0,0,1,.39-.15,4,4,0,0,1,2.74.39,2.49,2.49,0,0,1,.81,1v4.27l1.3.12v1.39a11.06,11.06,0,0,1,6.78,3,9.52,9.52,0,0,1,2.9,6.59v12.85l5.21.08a3.05,3.05,0,0,1-1.28,3.17q.1,6.25.24,12.5Z"/>
  <polygon class="cls-2" points="106.9 205.13 106.9 179.7 168.53 179.7 178.93 185.43 179.45 205.13 106.9 205.13"/>
  <polygon class="cls-2" points="131.64 179.7 131.64 171.62 130.77 170.79 131.74 170.79 131.74 167.86 133.19 166.15 133.19 162.49 132.46 161.76 133.31 161.76 133.91 159.81 133.91 157.1 134.4 157.12 134.4 155.9 133.67 155.9 133.67 154.2 137.2 154.2 137.2 155.86 136.58 155.9 136.58 157.12 137.06 157.12 137.06 159.81 137.79 161.52 138.51 161.52 137.79 162.49 137.79 166.15 138.75 167.86 138.75 170.49 139.48 170.54 139 171.28 139.12 179.7 131.64 179.7"/>
  <polygon class="cls-2" points="186.42 205.13 198.32 205.13 198.32 201.88 198.05 194.45 197.24 194.45 197.24 191.77 197.24 188.51 197.81 188.51 197.81 187.38 196.31 187.38 196.36 180.55 195.28 180.55 195.15 178.11 189.61 178.11 189.58 180.55 188.37 180.55 188.37 181.52 188.37 186.89 186.92 186.89 186.92 188.11 187.5 188.14 187.4 194.7 186.42 194.7 186.42 201.88 186.42 205.13"/>
  <path class="cls-2" d="M186.44,194.7a2.89,2.89,0,0,1-1,.73,2.92,2.92,0,0,1-1.7.24,2.55,2.55,0,0,1-1.21-.24,2.7,2.7,0,0,1-1.21-1.22,4.79,4.79,0,0,0,.73,2.2,5.55,5.55,0,0,0,4.36,2.21Z"/>
  <path class="cls-2" d="M198.05,195.34a3,3,0,0,0,1,.72,2.92,2.92,0,0,0,1.7.24,2.55,2.55,0,0,0,1.21-.24,2.63,2.63,0,0,0,1.21-1.21,4.68,4.68,0,0,1-.73,2.18,5.51,5.51,0,0,1-4.36,2.19Z"/>
  <path class="cls-2" d="M184.5,181.37c.37.18.78.35,1.21.53a6.34,6.34,0,0,0,.73.26,1.55,1.55,0,0,0,1.45,0,1.68,1.68,0,0,0,.72-.79v4A6.09,6.09,0,0,1,184.5,181.37Z"/>
  <path class="cls-2" d="M200.23,181.52c-.37.17-.78.33-1.21.49l-.72.24a1.7,1.7,0,0,1-1.46,0,1.64,1.64,0,0,1-.72-.73v3.66A5.9,5.9,0,0,0,200.23,181.52Z"/>
  <path class="cls-2" d="M201.2,189c-.37.17-.78.33-1.21.49-.24.08-.48.17-.73.24a1.75,1.75,0,0,1-1.45,0,1.59,1.59,0,0,1-.72-.73v3.63A5.89,5.89,0,0,0,201.2,189Z"/>
  <path class="cls-2" d="M183.53,188.11c.38.17.78.33,1.21.49.24.09.49.17.73.24a1.75,1.75,0,0,0,1.45,0,1.66,1.66,0,0,0,.73-.73v3.66A5.9,5.9,0,0,1,183.53,188.11Z"/>
  <path class="cls-2" d="M192.49,172.64a5.15,5.15,0,0,0,1.21,2,4.79,4.79,0,0,0,1,.76,3.65,3.65,0,0,0,2.17,0,3.46,3.46,0,0,0,1-.51,4.93,4.93,0,0,1-1.45,2.52,4.81,4.81,0,0,1-3.87,1.16Z"/>
  <path class="cls-2" d="M192.49,172.64a5.27,5.27,0,0,1-1.21,2,5.08,5.08,0,0,1-1,.76,3.68,3.68,0,0,1-2.18,0,3.6,3.6,0,0,1-1-.51,5,5,0,0,0,1.45,2.52,4.82,4.82,0,0,0,3.88,1.16Z"/>
  <path class="cls-2" d="M39.09,204.21A14,14,0,0,0,33.4,199a12.75,12.75,0,0,0-2.3-.86l-.73-2-2.42.25-3.51.36-2.05-.12-1.65-.49a.75.75,0,0,0-.65.12c-.17.16-.17.37-.25,1,0,.34-.09.62-.12.78a4.56,4.56,0,0,1-2.17,1.78v5.31H39.09Z"/>
  <polygon class="cls-2" points="21.05 187.01 17.91 189.21 17.91 192.79 20.57 194.82 21.49 196.38 25.41 197.5 30.54 196.62 31.95 196.04 31.95 191.69 29.28 188.48 27 187.87 24.93 187.87 24.12 187.01 21.05 187.01"/>
  <path class="cls-2" d="M30,189.21l-1-2-1.45-2.2v-3.75l-1.21-.64a4.44,4.44,0,0,0,.24-.49,3.31,3.31,0,0,0,.24-1.46,1.7,1.7,0,0,0-.72-1,1.58,1.58,0,0,0-.73-.24,1.26,1.26,0,0,0-1,.24,1.33,1.33,0,0,0-.48,1,1.83,1.83,0,0,0,.48,1.22,1.87,1.87,0,0,0,.49.34,2.25,2.25,0,0,0-1.21.63,2.4,2.4,0,0,0-.49.73L22,184.33A3.86,3.86,0,0,0,22,187l2.91,2.41Z"/>
  <polygon class="cls-2" points="179.18 201.62 179.18 205.13 186.42 205.13 186.42 201.1 179.18 201.62"/>
  <path class="cls-2" d="M206.66,205.15h-8.91l-1-1.17,9.9-.15Z"/>
</svg>
