<svg id="Layer_1" data-name="Layer 1" xmlns="http://www.w3.org/2000/svg" width="170" height="490" viewBox="0 0 170 490">
  <defs>
    <style>
      .cls-1 {
        fill: #eec0c7;
      }
    </style>
  </defs>
  <g>
    <polygon class="cls-1" points="128.99 274.83 68.92 274.83 68.92 128.07 82.45 103.31 128.99 102.07 128.99 274.83"/>
    <polygon class="cls-1" points="68.92 215.92 49.83 215.92 47.87 218 47.87 215.69 40.95 215.69 36.92 212.24 28.27 212.24 26.54 213.96 26.54 211.96 21.93 210.51 15.54 210.51 15.59 209.35 12.71 209.35 12.71 211.08 8.68 211.08 8.68 202.68 12.6 202.68 12.71 204.17 15.59 204.17 15.59 203.01 21.93 203.01 25.97 201.28 25.97 199.56 28.27 201.28 36.92 201.28 40.95 198.98 47.17 198.98 47.29 197.25 49.02 198.4 68.92 198.12 68.92 215.92"/>
    <path class="cls-1" d="M127.41,18.58c-.12,0-.26.58-.72,1.69A25.19,25.19,0,0,1,123,26.48a39.07,39.07,0,0,1-2.54,3.05,39.52,39.52,0,0,1-16.14,9.8c-3.81,1.24-10.6,3.46-19,1.73-4.7-1-12.57-2.57-15.56-9.22a13.77,13.77,0,0,1,1.15-13.26c2.76-3.83,6.92-4.71,11.53-5.76a37,37,0,0,1,12.1-.58c8.3.75,17.23,1.56,24.79,8.07,2.79,2.41,8.35,7.2,8.64,13.83.09,2-.65,3.78-1.93,6.15a44.17,44.17,0,0,1-14.21,15.18C94.74,67.09,86.2,72.89,81.3,80.83,79,84.62,75.4,90,75.53,97.54c.15,9.42,5.85,17,6.49,16.76.29-.11-.45-1.88-1.15-6.92a34.85,34.85,0,0,1-.58-8.65A28,28,0,0,1,82,91.47a33.84,33.84,0,0,1,3.91-7.76c5.34-8.16,9.9-6.12,22.47-16.14a80.19,80.19,0,0,0,16.72-18.44A24.89,24.89,0,0,0,128,43.94c3.46-9.42-1.44-20.33-6.34-26.51C111.54,4.69,94,2.84,82.47,5.9c-3.36.89-8,2.19-11.53,6.34-5.72,6.68-6.07,17.64-1.15,25.36a22.45,22.45,0,0,0,12.68,9.22c3.67,1,6.49.68,12.1,0A49.93,49.93,0,0,0,113,41.64c4.86-2.55,8.78-4.62,11.53-9.23C128.21,26.19,127.8,18.66,127.41,18.58Z"/>
    <polygon class="cls-1" points="129.18 85.47 129.18 57.13 121.45 57.13 103.82 57.77 103.82 59.72 97.44 59.72 89.7 59.72 89.7 58.36 87 58.35 87 61.93 70.77 61.81 70.77 64.38 64.97 64.69 64.97 77.88 70.77 77.94 70.77 80.83 73.08 80.83 85.84 80.83 85.84 84.28 88.74 84.28 88.8 82.9 104.4 83.13 104.4 85.47 129.18 85.47"/>
    <path class="cls-1" d="M104.35,85.48a6.86,6.86,0,0,1,1.73,2.27,7.2,7.2,0,0,1,.58,4,6.07,6.07,0,0,1-3.46,5.76,10.94,10.94,0,0,0,5.19-1.73c5-3.28,5.18-9.64,5.21-10.34Z"/>
    <path class="cls-1" d="M103.76,57.77a7,7,0,0,0,1.73-2.27,7.11,7.11,0,0,0,.57-4,6.09,6.09,0,0,0-.57-2.88,6.33,6.33,0,0,0-2.88-2.88,11,11,0,0,1,5.18,1.73c5,3.28,5.19,9.64,5.22,10.34Z"/>
    <path class="cls-1" d="M73.23,90.05c.39-.89.78-1.86,1.15-2.88.21-.58.4-1.16.58-1.73A4.18,4.18,0,0,0,75,82a4,4,0,0,0-1.73-1.73h8.64A14,14,0,0,1,73.23,90.05Z"/>
    <path class="cls-1" d="M73.22,52.59c.4.89.79,1.85,1.15,2.88.21.57.4,1.15.58,1.73a4.16,4.16,0,0,1,0,3.45,3.91,3.91,0,0,1-1.73,1.73h8.64A14,14,0,0,0,73.22,52.59Z"/>
    <path class="cls-1" d="M88.78,50.28c.4.89.79,1.86,1.15,2.88.21.58.41,1.15.58,1.73a4.18,4.18,0,0,1,0,3.46,3.91,3.91,0,0,1-1.73,1.73h8.64A14,14,0,0,0,88.78,50.28Z"/>
    <path class="cls-1" d="M88.78,92.35c.4-.89.79-1.85,1.15-2.88.21-.57.41-1.15.58-1.73a4.16,4.16,0,0,0,0-3.45,3.86,3.86,0,0,0-1.73-1.73h8.64A14,14,0,0,1,88.78,92.35Z"/>
    <path class="cls-1" d="M52.48,71a11.65,11.65,0,0,0,4.61-2.88,11.81,11.81,0,0,0,1.73-2.31,8.83,8.83,0,0,0,0-5.19,8.26,8.26,0,0,0-1.15-2.3,11.33,11.33,0,0,1,5.76,3.46A11.89,11.89,0,0,1,66.08,71Z"/>
    <path class="cls-1" d="M52.45,71a11.65,11.65,0,0,1,4.61,2.88,11.52,11.52,0,0,1,1.73,2.31,8.8,8.8,0,0,1,0,5.18,8.32,8.32,0,0,1-1.15,2.31,11.4,11.4,0,0,0,5.76-3.46A11.9,11.9,0,0,0,66.05,71Z"/>
    <polygon class="cls-1" points="65.88 442.7 129.13 442.7 129.13 386.64 52.52 386.64 52.52 391.83 65.88 391.98 65.88 410.42 62.42 414.46 65.88 417.91 65.88 442.7"/>
    <polygon class="cls-1" points="129.13 355.39 55.93 355.39 55.93 371.66 49.88 371.66 49.88 377.89 55.93 377.89 56.08 395.43 129.13 395.43 129.13 355.39"/>
    <path class="cls-1" d="M129.14,356H98.43a6.85,6.85,0,0,1-2.88,3,6.2,6.2,0,0,1-4,.63l.15-12.07H60.86c-1.73-.2-11.71-1.56-17.75-10.91a26.75,26.75,0,0,1-4-11.87H35.24l-.19-3.11h-9.6a6.12,6.12,0,0,1-3.08-3.06,6.36,6.36,0,0,1-.35-.95,9.25,9.25,0,0,1,.92-6.52,5.83,5.83,0,0,1,2.31-1.92H35.33l.28-3.11h3.3A26.51,26.51,0,0,1,46,289.91,22.55,22.55,0,0,1,61.55,283H91.91l.18-12.39a7.23,7.23,0,0,1,7.5,3.05q14.76-.27,29.53-.57Z"/>
    <polygon class="cls-1" points="129.13 273.72 69.07 273.72 69.07 126.96 82.59 102.19 129.13 100.96 129.13 273.72"/>
    <polygon class="cls-1" points="69.07 214.81 49.98 214.81 48.01 216.89 48.01 214.58 41.1 214.58 37.06 211.12 28.42 211.12 26.69 212.85 26.69 210.85 22.08 209.39 15.69 209.39 15.74 208.24 12.86 208.24 12.86 209.97 8.82 209.97 8.82 201.57 12.75 201.57 12.86 203.05 15.74 203.05 15.74 201.9 22.08 201.9 26.11 200.17 26.11 198.44 28.42 200.17 37.06 200.17 41.1 197.87 47.32 197.87 47.44 196.14 49.17 197.29 69.07 197 69.07 214.81"/>
    <path class="cls-1" d="M127.55,4.79c-.34,0,1,10-1.15,14.41a44.64,44.64,0,0,1-2.31,4c-.57.9-1.11,1.63-1.5,2.14h0a39.24,39.24,0,0,1-2.53,3.05,39.41,39.41,0,0,1-16.14,9.8c-3.8,1.24-10.6,3.46-19,1.73-4.7-1-12.57-2.57-15.56-9.23a13.76,13.76,0,0,1,1.15-13.25c2.75-3.83,6.92-4.72,11.53-5.76a37,37,0,0,1,12.1-.58c8.3.75,17.23,1.56,24.78,8.07,2.8,2.41,8.37,7.2,8.65,13.83.09,2-.65,3.78-1.92,6.14a44.33,44.33,0,0,1-14.22,15.19C94.31,66,85.76,71.78,80.87,79.71c-2,3.17-5.46,8.79-5.77,16.72-.38,9.86,4.32,18.64,5.19,18.44.3-.07.2-1.58,0-4.61-.44-6.7-1.31-7.57-1.15-11,.13-2.88.9-4.89,2.43-9a37.65,37.65,0,0,1,3.91-7.76c5.34-8.16,9.91-6.12,22.47-16.14A80.4,80.4,0,0,0,124.67,48a25.17,25.17,0,0,0,2.88-5.19c3.46-9.41-1.43-20.34-6.34-26.51C111.1,3.58,93.55,1.72,82,4.79c-3.36.89-8,2.18-11.53,6.34-5.72,6.67-6.07,17.64-1.15,25.36A22.45,22.45,0,0,0,82,45.71c3.68,1,6.49.67,12.1,0,4.83-.58,11.23-1.41,18.44-5.19,3.71-1.93,8-4.26,11.53-9.22A29,29,0,0,0,129.28,14C129.24,8.63,127.77,4.75,127.55,4.79Z"/>
    <path class="cls-1" d="M127,435.2a33.18,33.18,0,0,0-12.39,13.55,31.51,31.51,0,0,0-2,5.47L108,456l.58,5.77.87,8.35-.29,4.9L108,478.89a1.81,1.81,0,0,0,.29,1.56c.36.4.87.38,2.31.57.81.11,1.46.22,1.85.29a11,11,0,0,1,4.2,5.19h12.54V435.2Z"/>
    <polygon class="cls-1" points="86.34 478.14 91.53 485.63 100 485.63 104.78 479.3 108.48 477.11 111.12 467.77 109.03 455.55 107.67 452.21 97.38 452.21 89.8 458.55 88.36 463.98 88.36 468.92 86.34 470.84 86.34 478.14"/>
    <path class="cls-1" d="M91.53,456.82l-4.61,2.3-5.19,3.46H72.86l-1.5,2.88a8.31,8.31,0,0,0-1.16-.57,8.17,8.17,0,0,0-3.46-.58,4,4,0,0,0-2.88,3.46,3.06,3.06,0,0,0,.58,2.3,3.14,3.14,0,0,0,2.3,1.16,4.24,4.24,0,0,0,2.89-1.16,4,4,0,0,0,.8-1.15,5.51,5.51,0,0,0,1.5,2.88A5.32,5.32,0,0,0,73.66,473L80,475.84a9,9,0,0,0,6.34,0L92,468.92Z"/>
    <polygon class="cls-1" points="120.85 101.62 129.13 101.62 129.13 84.35 119.63 84.35 120.85 101.62"/>
    <path class="cls-1" d="M129.14,61.06l.14-45.9L126.4,61.78"/>
  </g>
</svg>
